<svg id="visual" viewBox="0 0 960 540" width="960" height="540" xmlns="http://www.w3.org/2000/svg" xmlns:xlink="http://www.w3.org/1999/xlink" version="1.1"><rect width="960" height="540" fill="#FFFFFF"></rect><g><g transform="translate(940 45)"><path d="M0 -115.5L90.3 -72L112.6 25.7L50.1 104L-50.1 104L-112.6 25.7L-90.3 -72Z" fill="none" stroke="#c3c2c2" stroke-width="2"></path></g><g transform="translate(205 265)"><path d="M0 -67L52.4 -41.8L65.3 14.9L29.1 60.4L-29.1 60.4L-65.3 14.9L-52.4 -41.8Z" fill="none" stroke="#c3c2c2" stroke-width="2"></path></g><g transform="translate(632 274)"><path d="M0 -95L74.3 -59.2L92.6 21.1L41.2 85.6L-41.2 85.6L-92.6 21.1L-74.3 -59.2Z" fill="none" stroke="#c3c2c2" stroke-width="2"></path></g><g transform="translate(189 22)"><path d="M0 -69L53.9 -43L67.3 15.4L29.9 62.2L-29.9 62.2L-67.3 15.4L-53.9 -43Z" stroke="#c3c2c2" fill="none" stroke-width="2"></path></g></g></svg>